<svg width="12" height="4" viewBox="0 0 12 4" xmlns="http://www.w3.org/2000/svg" id="dotted-icon">
<path d="M5.0625 1.0625C5.33333 0.791667 5.64583 0.65625 6 0.65625C6.35417 0.65625 6.66667 0.791667 6.9375 1.0625C7.20833 1.33333 7.34375 1.64583 7.34375 2C7.34375 2.35417 7.20833 2.66667 6.9375 2.9375C6.66667 3.20833 6.35417 3.34375 6 3.34375C5.64583 3.34375 5.33333 3.20833 5.0625 2.9375C4.79167 2.66667 4.65625 2.35417 4.65625 2C4.65625 1.64583 4.79167 1.33333 5.0625 1.0625ZM9.0625 1.0625C9.33333 0.791667 9.64583 0.65625 10 0.65625C10.3542 0.65625 10.6667 0.791667 10.9375 1.0625C11.2083 1.33333 11.3438 1.64583 11.3438 2C11.3438 2.35417 11.2083 2.66667 10.9375 2.9375C10.6667 3.20833 10.3542 3.34375 10 3.34375C9.64583 3.34375 9.33333 3.20833 9.0625 2.9375C8.79167 2.66667 8.65625 2.35417 8.65625 2C8.65625 1.64583 8.79167 1.33333 9.0625 1.0625ZM1.0625 1.0625C1.33333 0.791667 1.64583 0.65625 2 0.65625C2.35417 0.65625 2.66667 0.791667 2.9375 1.0625C3.20833 1.33333 3.34375 1.64583 3.34375 2C3.34375 2.35417 3.20833 2.66667 2.9375 2.9375C2.66667 3.20833 2.35417 3.34375 2 3.34375C1.64583 3.34375 1.33333 3.20833 1.0625 2.9375C0.791667 2.66667 0.65625 2.35417 0.65625 2C0.65625 1.64583 0.791667 1.33333 1.0625 1.0625Z" fill="currentColor"/>
<path d="M5.0625 1.0625L5.41605 1.41605C5.60155 1.23056 5.78991 1.15625 6 1.15625V0.65625V0.15625C5.50176 0.15625 5.06512 0.352777 4.70895 0.708947L5.0625 1.0625ZM6 0.65625V1.15625C6.21009 1.15625 6.39845 1.23056 6.58395 1.41605L6.9375 1.0625L7.29105 0.708947C6.93488 0.352777 6.49824 0.15625 6 0.15625V0.65625ZM6.9375 1.0625L6.58395 1.41605C6.76944 1.60155 6.84375 1.78991 6.84375 2H7.34375H7.84375C7.84375 1.50176 7.64722 1.06512 7.29105 0.708947L6.9375 1.0625ZM7.34375 2H6.84375C6.84375 2.21009 6.76944 2.39845 6.58395 2.58395L6.9375 2.9375L7.29105 3.29105C7.64722 2.93488 7.84375 2.49824 7.84375 2H7.34375ZM6.9375 2.9375L6.58395 2.58395C6.39845 2.76944 6.21009 2.84375 6 2.84375V3.34375V3.84375C6.49824 3.84375 6.93488 3.64722 7.29105 3.29105L6.9375 2.9375ZM6 3.34375V2.84375C5.78991 2.84375 5.60155 2.76944 5.41605 2.58395L5.0625 2.9375L4.70895 3.29105C5.06512 3.64722 5.50176 3.84375 6 3.84375V3.34375ZM5.0625 2.9375L5.41605 2.58395C5.23056 2.39845 5.15625 2.21009 5.15625 2H4.65625H4.15625C4.15625 2.49824 4.35278 2.93488 4.70895 3.29105L5.0625 2.9375ZM4.65625 2H5.15625C5.15625 1.78991 5.23056 1.60155 5.41605 1.41605L5.0625 1.0625L4.70895 0.708947C4.35278 1.06512 4.15625 1.50176 4.15625 2H4.65625ZM9.0625 1.0625L9.41605 1.41605C9.60155 1.23056 9.78991 1.15625 10 1.15625V0.65625V0.15625C9.50176 0.15625 9.06512 0.352777 8.70895 0.708947L9.0625 1.0625ZM10 0.65625V1.15625C10.2101 1.15625 10.3984 1.23056 10.5839 1.41605L10.9375 1.0625L11.2911 0.708947C10.9349 0.352777 10.4982 0.15625 10 0.15625V0.65625ZM10.9375 1.0625L10.5839 1.41605C10.7694 1.60155 10.8438 1.78991 10.8438 2H11.3438H11.8438C11.8438 1.50176 11.6472 1.06512 11.2911 0.708947L10.9375 1.0625ZM11.3438 2H10.8438C10.8438 2.21009 10.7694 2.39845 10.5839 2.58395L10.9375 2.9375L11.2911 3.29105C11.6472 2.93488 11.8438 2.49824 11.8438 2H11.3438ZM10.9375 2.9375L10.5839 2.58395C10.3984 2.76944 10.2101 2.84375 10 2.84375V3.34375V3.84375C10.4982 3.84375 10.9349 3.64722 11.2911 3.29105L10.9375 2.9375ZM10 3.34375V2.84375C9.78991 2.84375 9.60155 2.76944 9.41605 2.58395L9.0625 2.9375L8.70895 3.29105C9.06512 3.64722 9.50176 3.84375 10 3.84375V3.34375ZM9.0625 2.9375L9.41605 2.58395C9.23056 2.39845 9.15625 2.21009 9.15625 2H8.65625H8.15625C8.15625 2.49824 8.35278 2.93488 8.70895 3.29105L9.0625 2.9375ZM8.65625 2H9.15625C9.15625 1.78991 9.23056 1.60155 9.41605 1.41605L9.0625 1.0625L8.70895 0.708947C8.35278 1.06512 8.15625 1.50176 8.15625 2H8.65625ZM1.0625 1.0625L1.41605 1.41605C1.60155 1.23056 1.78991 1.15625 2 1.15625V0.65625V0.15625C1.50176 0.15625 1.06512 0.352777 0.708947 0.708947L1.0625 1.0625ZM2 0.65625V1.15625C2.21009 1.15625 2.39845 1.23056 2.58395 1.41605L2.9375 1.0625L3.29105 0.708947C2.93488 0.352777 2.49824 0.15625 2 0.15625V0.65625ZM2.9375 1.0625L2.58395 1.41605C2.76944 1.60155 2.84375 1.78991 2.84375 2H3.34375H3.84375C3.84375 1.50176 3.64722 1.06512 3.29105 0.708947L2.9375 1.0625ZM3.34375 2H2.84375C2.84375 2.21009 2.76944 2.39845 2.58395 2.58395L2.9375 2.9375L3.29105 3.29105C3.64722 2.93488 3.84375 2.49824 3.84375 2H3.34375ZM2.9375 2.9375L2.58395 2.58395C2.39845 2.76944 2.21009 2.84375 2 2.84375V3.34375V3.84375C2.49824 3.84375 2.93488 3.64722 3.29105 3.29105L2.9375 2.9375ZM2 3.34375V2.84375C1.78991 2.84375 1.60155 2.76944 1.41605 2.58395L1.0625 2.9375L0.708947 3.29105C1.06512 3.64722 1.50176 3.84375 2 3.84375V3.34375ZM1.0625 2.9375L1.41605 2.58395C1.23056 2.39845 1.15625 2.21009 1.15625 2H0.65625H0.15625C0.15625 2.49824 0.352777 2.93488 0.708947 3.29105L1.0625 2.9375ZM0.65625 2H1.15625C1.15625 1.78991 1.23056 1.60155 1.41605 1.41605L1.0625 1.0625L0.708947 0.708947C0.352777 1.06512 0.15625 1.50176 0.15625 2H0.65625Z" fill="currentColor"/>
</svg>
