<svg width="18" height="18" viewBox="0 0 18 18" fill="none" xmlns="http://www.w3.org/2000/svg">
<path d="M4.74609 9.52734C5.40234 10.1836 6.19922 10.5117 7.13672 10.5117C8.07422 10.5117 8.87109 10.1836 9.52734 9.52734C10.1836 8.87109 10.5117 8.07422 10.5117 7.13672C10.5117 6.19922 10.1836 5.40234 9.52734 4.74609C8.87109 4.08984 8.07422 3.76172 7.13672 3.76172C6.19922 3.76172 5.40234 4.08984 4.74609 4.74609C4.08984 5.40234 3.76172 6.19922 3.76172 7.13672C3.76172 8.07422 4.08984 8.87109 4.74609 9.52734ZM11.6367 10.5117L15.3633 14.2383L14.2383 15.3633L10.5117 11.6367V11.0391L10.3008 10.8281C9.41016 11.6016 8.35547 11.9883 7.13672 11.9883C5.77734 11.9883 4.61719 11.5195 3.65625 10.582C2.71875 9.64453 2.25 8.49609 2.25 7.13672C2.25 5.77734 2.71875 4.62891 3.65625 3.69141C4.61719 2.73047 5.77734 2.25 7.13672 2.25C8.49609 2.25 9.64453 2.73047 10.582 3.69141C11.5195 4.62891 11.9883 5.77734 11.9883 7.13672C11.9883 7.62891 11.8711 8.19141 11.6367 8.82422C11.4023 9.43359 11.1328 9.92578 10.8281 10.3008L11.0391 10.5117H11.6367Z" fill="white"/>
</svg>
